{
  "accessors": [
    {
      "bufferView": 2,
      "componentType": 5126,
      "count": 6882,
      "max": [
        2.29612398147583,
        0.7292219996452332,
        2.316606044769287
      ],
      "min": [
        -1.9377779960632324,
        -0.7292219996452332,
        -2.248466968536377
      ],
      "type": "VEC3"
    },
    {
      "bufferView": 2,
      "byteOffset": 82584,
      "componentType": 5126,
      "count": 6882,
      "max": [
        1.0,
        1.0,
        1.0
      ],
      "min": [
        -1.0,
        -1.0,
        -1.0
      ],
      "type": "VEC3"
    },
    {
      "bufferView": 3,
      "componentType": 5126,
      "count": 6882,
      "max": [
        0.9999802112579346,
        1.0,
        0.9992150068283081,
        1.0
      ],
      "min": [
        -0.9999900460243225,
        -1.0,
        -0.9971041083335876,
        -1.0
      ],
      "type": "VEC4"
    },
    {
      "bufferView": 1,
      "componentType": 5126,
      "count": 6882,
      "max": [
        0.9914019703865051,
        0.9920510053634644
      ],
      "min": [
        0.010397999547421932,
        0.010712999850511551
      ],
      "type": "VEC2"
    },
    {
      "bufferView": 0,
      "componentType": 5125,
      "count": 37524,
      "type": "SCALAR"
    }
  ],
  "asset": {
    "extras": {
      "author": "assetfactory (https://sketchfab.com/assetfactory)",
      "license": "SKETCHFAB Standard (https://sketchfab.com/licenses)",
      "source": "https://sketchfab.com/3d-models/basic-headphones-with-the-microphone-f75dd2387ea34c39a7def25b822f81f0",
      "title": "Basic Headphones with the microphone"
    },
    "generator": "Sketchfab-16.33.0",
    "version": "2.0"
  },
  "bufferViews": [
    {
      "buffer": 0,
      "byteLength": 150096,
      "name": "floatBufferViews",
      "target": 34963
    },
    {
      "buffer": 0,
      "byteLength": 55056,
      "byteOffset": 150096,
      "byteStride": 8,
      "name": "floatBufferViews",
      "target": 34962
    },
    {
      "buffer": 0,
      "byteLength": 165168,
      "byteOffset": 205152,
      "byteStride": 12,
      "name": "floatBufferViews",
      "target": 34962
    },
    {
      "buffer": 0,
      "byteLength": 110112,
      "byteOffset": 370320,
      "byteStride": 16,
      "name": "floatBufferViews",
      "target": 34962
    }
  ],
  "buffers": [
    {
      "byteLength": 480432,
      "uri": "scene.bin"
    }
  ],
  "images": [
    {
      "uri": "textures/BlackPlastic_baseColor.jpeg"
    },
    {
      "uri": "textures/BlackPlastic_metallicRoughness.png"
    },
    {
      "uri": "textures/BlackPlastic_normal.png"
    }
  ],
  "materials": [
    {
      "doubleSided": true,
      "name": "BlackPlastic",
      "normalTexture": {
        "index": 2
      },
      "pbrMetallicRoughness": {
        "baseColorTexture": {
          "index": 0
        },
        "metallicFactor": 0.0,
        "metallicRoughnessTexture": {
          "index": 1
        }
      }
    }
  ],
  "meshes": [
    {
      "name": "Object_0",
      "primitives": [
        {
          "attributes": {
            "NORMAL": 1,
            "POSITION": 0,
            "TANGENT": 2,
            "TEXCOORD_0": 3
          },
          "indices": 4,
          "material": 0,
          "mode": 4
        }
      ]
    }
  ],
  "nodes": [
    {
      "children": [
        1
      ],
      "matrix": [
        1.0,
        0.0,
        0.0,
        0.0,
        0.0,
        2.220446049250313e-16,
        -1.0,
        0.0,
        0.0,
        1.0,
        2.220446049250313e-16,
        0.0,
        0.0,
        0.0,
        0.0,
        1.0
      ],
      "name": "Sketchfab_model"
    },
    {
      "children": [
        2
      ],
      "name": "Headphones.obj.cleaner.materialmerger.gles"
    },
    {
      "mesh": 0,
      "name": "Object_2"
    }
  ],
  "samplers": [
    {
      "magFilter": 9729,
      "minFilter": 9987,
      "wrapS": 10497,
      "wrapT": 10497
    }
  ],
  "scene": 0,
  "scenes": [
    {
      "name": "Sketchfab_Scene",
      "nodes": [
        0
      ]
    }
  ],
  "textures": [
    {
      "sampler": 0,
      "source": 0
    },
    {
      "sampler": 0,
      "source": 1
    },
    {
      "sampler": 0,
      "source": 2
    }
  ]
}
